{"title":"7 Chinese Brothers 2015 Movies 720p HDRip XviD New +Sample â˜»rDXâ˜»","uid":12337314,"size":740267520,"categoryP":"video","categoryS":"movies","magnet":"?xt=urn:btih:4c3968db99c888353c4c93044fabbbff1f8bae76&amp;dn=7+Chinese+Brothers+2015+Movies+720p+HDRip+XviD+New+%2BSample+%E2%98%BBrDX%E2%98%BB&amp;tr=udp%3A%2F%2Ftracker.openbittorrent.com%3A80&amp;tr=udp%3A%2F%2Fopen.demonii.com%3A1337&amp;tr=udp%3A%2F%2Ftracker.coppersurfer.tk%3A6969&amp;tr=udp%3A%2F%2Fexodus.desync.com%3A6969","seeders":2,"leechers":0,"uploader":"basicssom","files":2,"time":1441255369,"description":"----------------------------------------------------------------\n7 Chinese Brothers 2015 English Movies 720p HDRip XviD AAC New Source with Sample ~ â˜»rDXâ˜»\n\nSCREEN SHOTS &amp; POSTER:\n &lt;a href=&quot;\nhttp://doctorhosts.com/2015/8/7ChineseBrothers/11.html&quot; rel=&quot;nofollow&quot; target=&quot;_NEW&quot;&gt;\nhttp://doctorhosts.com/2015/8/7ChineseBrothers/11.html&lt;/a&gt; &lt;a href=&quot;\nhttp://doctorhosts.com/2015/8/7ChineseBrothers/1.html&quot; rel=&quot;nofollow&quot; target=&quot;_NEW&quot;&gt;\nhttp://doctorhosts.com/2015/8/7ChineseBrothers/1.html&lt;/a&gt; &lt;a href=&quot;\nhttp://doctorhosts.com/2015/8/7ChineseBrothers/2.html&quot; rel=&quot;nofollow&quot; target=&quot;_NEW&quot;&gt;\nhttp://doctorhosts.com/2015/8/7ChineseBrothers/2.html&lt;/a&gt; &lt;a href=&quot;\nhttp://doctorhosts.com/2015/8/7ChineseBrothers/3.html&quot; rel=&quot;nofollow&quot; target=&quot;_NEW&quot;&gt;\nhttp://doctorhosts.com/2015/8/7ChineseBrothers/3.html&lt;/a&gt; &lt;a href=&quot;\nhttp://doctorhosts.com/2015/8/7ChineseBrothers/4.html&quot; rel=&quot;nofollow&quot; target=&quot;_NEW&quot;&gt;\nhttp://doctorhosts.com/2015/8/7ChineseBrothers/4.html&lt;/a&gt; &lt;a href=&quot;\nhttp://doctorhosts.com/2015/8/7ChineseBrothers/5.html&quot; rel=&quot;nofollow&quot; target=&quot;_NEW&quot;&gt;\nhttp://doctorhosts.com/2015/8/7ChineseBrothers/5.html&lt;/a&gt; &lt;a href=&quot;\nhttp://doctorhosts.com/2015/8/7ChineseBrothers/6.html&quot; rel=&quot;nofollow&quot; target=&quot;_NEW&quot;&gt;\nhttp://doctorhosts.com/2015/8/7ChineseBrothers/6.html&lt;/a&gt; &lt;a href=&quot;\nhttp://doctorhosts.com/2015/8/7ChineseBrothers/7.html&quot; rel=&quot;nofollow&quot; target=&quot;_NEW&quot;&gt;\nhttp://doctorhosts.com/2015/8/7ChineseBrothers/7.html&lt;/a&gt; &lt;a href=&quot;\nhttp://doctorhosts.com/2015/8/7ChineseBrothers/8.html&quot; rel=&quot;nofollow&quot; target=&quot;_NEW&quot;&gt;\nhttp://doctorhosts.com/2015/8/7ChineseBrothers/8.html&lt;/a&gt; &lt;a href=&quot;\nhttp://doctorhosts.com/2015/8/7ChineseBrothers/9.html&quot; rel=&quot;nofollow&quot; target=&quot;_NEW&quot;&gt;\nhttp://doctorhosts.com/2015/8/7ChineseBrothers/9.html&lt;/a&gt; &lt;a href=&quot;\nhttp://doctorhosts.com/2015/8/7ChineseBrothers/10.html&quot; rel=&quot;nofollow&quot; target=&quot;_NEW&quot;&gt;\nhttp://doctorhosts.com/2015/8/7ChineseBrothers/10.html&lt;/a&gt;\n\nFormat                                   : Matroska\nFormat version                           : Version 4 / Version 2\nFile size                                : 699 MiB\nDuration                                 : 1h 14mn\nOverall bit rate mode                    : Variable\nOverall bit rate                         : 1 306 Kbps\nMovie name                               : 7 Chinese Brothers 2015 English Movies 720p HDRip XviD AAC New Source ~ rDX ~\n\nVideo\nID                                       : 1\nFormat                                   : AVC\nFormat/Info                              : Advanced Video Codec\nFormat profile                           : &lt;a class=&quot;__cf_email__&quot; href=&quot;/cdn-cgi/l/email-protection&quot; data-cfemail=&quot;3e765759567e720a100f&quot;&gt;[email&amp;#160;protected]&lt;/a&gt;&lt;script data-cfhash='f9e31' type=&quot;text/javascript&quot;&gt;\n/* &lt;![CDATA[ */!function(){try{var t=&quot;currentScript&quot;in document?document.currentScript:function(){for(var t=document.getElementsByTagName(&quot;script&quot;),e=t.length;e--;)if(t[e].getAttribute(&quot;data-cfhash&quot;))return t[e]}();if(t&amp;&amp;t.previousSibling){var e,r,n,i,c=t.previousSibling,a=c.getAttribute(&quot;data-cfemail&quot;);if(a){for(e=&quot;&quot;,r=parseInt(a.substr(0,2),16),n=2;a.length-n;n+=2)i=parseInt(a.substr(n,2),16)^r,e+=String.fromCharCode(i);e=document.createTextNode(e),c.parentNode.replaceChild(e,c)}t.parentNode.removeChild(t);}}catch(u){}}()/* ]]&gt; */&lt;/script&gt;\nFormat settings, CABAC                   : Yes\nFormat settings, ReFrames                : 3 frames\nCodec ID                                 : V_MPEG4/ISO/AVC\nDuration                                 : 1h 14mn\nBit rate mode                            : Variable\nBit rate                                 : 1 152 Kbps\nNominal bit rate                         : 879 Kbps\nMaximum bit rate                         : 31.2 Mbps\nWidth                                    : 1 280 pixels\nHeight                                   : 718 pixels\nDisplay aspect ratio                     : 16:9\nFrame rate mode                          : Constant\nFrame rate                               : 23.976 fps\nColor space                              : YUV\nChroma subsampling                       : 4:2:0\nBit depth                                : 8 bits\nScan type                                : Progressive\nBits/(Pixel*Frame)                       : 0.052\nStream size                              : 617 MiB (88%)\nTitle                                    : ~ rDX ~\nWriting library                          : XviD\nDefault                                  : Yes\nForced                                   : No\n\nAudio\nID                                       : 2\nFormat                                   : AC-3\nFormat/Info                              : Audio Coding 3\nMode extension                           : CM (complete main)\nFormat settings, Endianness              : Big\nCodec ID                                 : A_AC3\nDuration                                 : 1h 14mn\nBit rate mode                            : Constant\nBit rate                                 : 128 Kbps\nChannel(s)                               : 2 channels\nChannel positions                        : Front: L R\nSampling rate                            : 48.0 KHz\nBit depth                                : 16 bits\nCompression mode                         : Lossy\nStream size                              : 68.5 MiB (10%)\nTitle                                    : ~ rDX ~\nLanguage                                 : Chinese\nDefault                                  : Yes\nForced                                   : No","torrent":{"xt":"urn:btih:4c3968db99c888353c4c93044fabbbff1f8bae76","amp;dn":"7+Chinese+Brothers+2015+Movies+720p+HDRip+XviD+New+%2BSample+%E2%98%BBrDX%E2%98%BB","amp;tr":["udp%3A%2F%2Ftracker.openbittorrent.com%3A80","udp%3A%2F%2Fopen.demonii.com%3A1337","udp%3A%2F%2Ftracker.coppersurfer.tk%3A6969","udp%3A%2F%2Fexodus.desync.com%3A6969"],"infoHash":"4c3968db99c888353c4c93044fabbbff1f8bae76","infoHashBuffer":{"type":"Buffer","data":[76,57,104,219,153,200,136,53,60,76,147,4,79,171,187,255,31,139,174,118]},"announce":[],"urlList":[]}}